inDegrees=yes
name=ik_S57_A08_T01
DataType=double
version=3
OpenSimVersion=4.3-2021-08-27-4bc7ad9
endheader
time	pelvis_tilt	pelvis_list	pelvis_rotation	pelvis_tx	pelvis_ty	pelvis_tz	hip_flexion_r	hip_adduction_r	hip_rotation_r	knee_angle_r	knee_angle_r_beta	ankle_angle_r	subtalar_angle_r	mtp_angle_r	hip_flexion_l	hip_adduction_l	hip_rotation_l	knee_angle_l	knee_angle_l_beta	ankle_angle_l	subtalar_angle_l	mtp_angle_l	lumbar_extension	lumbar_bending	lumbar_rotation	arm_flex_r	arm_add_r	arm_rot_r	elbow_flex_r	pro_sup_r	wrist_flex_r	wrist_dev_r	arm_flex_l	arm_add_l	arm_rot_l	elbow_flex_l	pro_sup_l	wrist_flex_l	wrist_dev_l
0	0	0	0	0	0.9399999999999999	0	0	0	0	0	0	0	0	0	0	0	0	0	0	0	0	0	0	0	0	0	0	0	0	89.99999999963507	0	0	0	0	0	0	89.99999999869995	0	0
0.02	-6.086103811559859	-2.394243110496362	23.12126566815174	0	0.9399999999999999	0	4.718061426817926	-2.173645593936999	-1.58231349621467	7.10089016120824	0.1239339131355547	0	0	0	4.718061426817926	-2.173645593936999	-1.58231349621467	7.10089016120824	0.1239339131355547	0	0	0	-5.716394687119998	-2.875451882035829	2.498892563037642	18.43454235919574	-0.4945671717958461	1.506448006262198	45.78492621636448	134.45394889003	0	0	16.5679249653232	-7.771736400517871	17.94305965084114	42.30683576997433	122.6979494577069	0	0
0.04	-6.038330870123528	-2.492237308312256	22.7534877239946	0	0.9399999999999999	0	29.33040345592801	-11.74825974004295	-9.506382229690619	34.25771059691573	0.5979098441115315	0	0	0	29.33040345592801	-11.74825974004295	-9.506382229690619	34.25771059691573	0.5979098441115315	0	0	0	-5.696437608047114	-2.813526326143343	2.890670234132343	18.40658786056379	-0.4976756222982848	1.475982458269044	45.80759281137557	134.4623382750664	0	0	16.58614126012288	-7.792875041736075	17.98468146308848	42.27545642113155	122.615420940866	0	0
0.06	-6.044302350384783	-2.491410292548154	22.75197956376247	0	0.9399999999999999	0	29.35443510731765	-11.73951293010312	-9.507987660098257	34.28036613606992	0.5983052578635865	0	0	0	29.35443510731765	-11.73951293010312	-9.507987660098257	34.28036613606992	0.5983052578635865	0	0	0	-5.703212579887158	-2.80542770275049	2.871889878472911	18.42265950999266	-0.5176185333776887	1.500936049620824	45.79465275948085	134.4664342157861	0	0	16.60149836038245	-7.792207021532067	17.92324655568252	42.24337380634987	122.561018288488	0	0
0.08	-6.054519550726512	-2.497796800370804	22.7492610213089	0	0.9399999999999999	0	29.36622794466946	-11.73439051623743	-9.508854410201092	34.29124470249687	0.5984951246656337	0	0	0	29.36622794466946	-11.73439051623743	-9.508854410201092	34.29124470249687	0.5984951246656337	0	0	0	-5.715905176707078	-2.804744463172115	2.860425962791361	18.43924976888456	-0.5053439935070743	1.507834726011889	45.7850889726431	134.4672612470612	0	0	16.62103775571325	-7.78387313083345	17.87579375960843	42.23161943249445	122.5695144565692	0	0
0.1	-6.06397500703844	-2.504470601827908	22.74939572191348	0	0.9399999999999999	0	29.39801158867511	-11.72156717581249	-9.511097632886482	34.32082705611468	0.5990114341367538	0	0	0	29.39801158867511	-11.72156717581249	-9.511097632886482	34.32082705611468	0.5990114341367538	0	0	0	-5.728503853300184	-2.802839235042225	2.851903339526107	18.46150872276132	-0.5156627577066537	1.515332363103795	45.81444445624685	134.407054046886	0	0	16.63534776535892	-7.782930769417652	17.85221644722833	42.26593653339688	122.5222562420338	0	0
0.12	-6.076297395091331	-2.504291458708715	22.73588823924912	0	0.9399999999999999	0	29.39464326808212	-11.72232785661726	-9.510912709340428	34.31758497482974	0.5989548491437142	0	0	0	29.39464326808212	-11.72232785661726	-9.510912709340428	34.31758497482974	0.5989548491437142	0	0	0	-5.739705606898902	-2.798289229460485	2.852576460423091	18.4925012367388	-0.5150311574856231	1.528585277007372	45.74824660483405	134.4781347367229	0	0	16.65261846937922	-7.774635647300033	17.84911486308304	42.21335923016749	122.552553057111	0	0
0.14	-6.088212979906818	-2.511982091775668	22.72355728989261	0	0.9399999999999999	0	29.42729602814827	-11.70960003052665	-9.513174317362704	34.34810811204849	0.5994875783862196	0	0	0	29.42729602814827	-11.70960003052665	-9.513174317362704	34.34810811204849	0.5994875783862196	0	0	0	-5.755077923169015	-2.796147117741956	2.844771936353961	18.52110646989777	-0.5265533448062858	1.557842195689004	45.78376642947257	134.4121059919102	0	0	16.65870013566515	-7.789273402332475	17.84630168961749	42.26295295035428	122.511231538631	0	0
0.16	-6.106085372505093	-2.520807103665465	22.70963291183799	0	0.9399999999999999	0	29.44357116245607	-11.70259490167602	-9.5143634375713	34.36312036384469	0.5997495916082016	0	0	0	29.44357116245607	-11.70259490167602	-9.5143634375713	34.36312036384469	0.5997495916082016	0	0	0	-5.775744026943025	-2.794912137540337	2.839823116909162	18.53276007369654	-0.5330092544742616	1.55720293863126	45.79963614773604	134.3889729074779	0	0	16.67727326431669	-7.809135026852526	17.84837807993864	42.28249328948201	122.4968973777727	0	0
0.18	-6.123033382595175	-2.532385398467827	22.68592004756805	0	0.9399999999999999	0	29.43787426381326	-11.70331753209557	-9.514111518707574	34.35731767922402	0.5996483156561161	0	0	0	29.43787426381326	-11.70331753209557	-9.514111518707574	34.35731767922402	0.5996483156561161	0	0	0	-5.795835710749813	-2.799230020764345	2.8366452417144	18.54699056404966	-0.5012577323617687	1.523263431802879	45.77014131521737	134.4504597959338	0	0	16.70594909555853	-7.796031763680603	17.84253538935525	42.25511877404384	122.522377266038	0	0
0.2	-6.128515470311986	-2.538020449516067	22.69740285458535	0	0.9399999999999999	0	29.45652590000084	-11.70006938046571	-9.515010746029608	34.376144724081	0.5999769095772911	0	0	0	29.45652590000084	-11.70006938046571	-9.515010746029608	34.376144724081	0.5999769095772911	0	0	0	-5.803833964494794	-2.799669986673631	2.833820122811125	18.55962210088571	-0.4997634421343831	1.497961363648233	45.7396400009178	134.5106853962086	0	0	16.72578532736097	-7.817995219703298	17.84221436455697	42.26834543800091	122.5260544194313	0	0
0.22	-6.137340636963613	-2.550555117142718	22.69316281071047	0	0.9399999999999999	0	29.4752765097838	-11.69521197583917	-9.516069351849234	34.39453736173841	0.6002979216625391	0	0	0	29.4752765097838	-11.69521197583917	-9.516069351849234	34.39453736173841	0.6002979216625391	0	0	0	-5.817509351987788	-2.805442386339969	2.833061160530621	18.59075385062955	-0.4895907810358672	1.519621869896304	45.73211461618355	134.5260083397185	0	0	16.75147410328802	-7.824248200928365	17.86675570692638	42.28719395125822	122.5211961919908	0	0
0.24	-6.134097843039921	-2.550757208338268	22.69304049898546	0	0.9399999999999999	0	29.48961521377813	-11.69281801891145	-9.516728595060309	34.40926483978174	0.6005549646449105	0	0	0	29.48961521377813	-11.69281801891145	-9.516728595060309	34.40926483978174	0.6005549646449105	0	0	0	-5.815153936241401	-2.804913698423332	2.831767133009101	18.59102038627958	-0.4950552831612852	1.54950192955738	45.72615093210434	134.5237631127471	0	0	16.74561299909277	-7.834374879712425	17.89922520190317	42.28830982555925	122.5281622039876	0	0
0.26	-6.18008764227308	-2.583429550801603	22.68423643190923	0	0.9399999999999999	0	29.51225460818895	-11.68419564596665	-9.518274966420483	34.43053343052434	0.600926171580628	0	0	0	29.51225460818895	-11.68419564596665	-9.518274966420483	34.43053343052434	0.600926171580628	0	0	0	-5.870639957192091	-2.815586645434857	2.840173772486154	18.6923187378615	-0.4990726048645823	1.552889386567216	45.71760522501104	134.4913656825522	0	0	16.84925192305149	-7.866222889425035	17.95182915220117	42.3379416014156	122.5454553821897	0	0
0.28	-6.211073545302887	-2.610909111491488	22.67206190450112	0	0.9399999999999999	0	29.52946740041096	-11.67743540587111	-9.519475232088119	34.44657160601053	0.6012060905488746	0	0	0	29.52946740041096	-11.67743540587111	-9.519475232088119	34.44657160601053	0.6012060905488746	0	0	0	-5.910186008424634	-2.827699587539421	2.847343703027209	18.7796992437313	-0.4977345157759925	1.522921064354087	45.70749698359739	134.509376575469	0	0	16.9025055213407	-7.89678855913585	18.00271196495699	42.36150273015547	122.5665998532587	0	0
0.3	-6.21780285130257	-2.627087106368142	22.66974822136011	0	0.9399999999999999	0	29.55048086448455	-11.66925865176557	-9.520934064094732	34.46616181268359	0.6015480041564657	0	0	0	29.55048086448455	-11.66925865176557	-9.520934064094732	34.46616181268359	0.6015480041564657	0	0	0	-5.922931286558198	-2.838737542873171	2.856095897633423	18.79768290410725	-0.4906603290943116	1.455718853157534	45.68748964521649	134.5037281284887	0	0	16.93415142838397	-7.909165125980331	18.01929615208697	42.38533037558156	122.5813039974883	0	0
0.32	-6.232747270566537	-2.637458492028339	22.66761381284259	0	0.9399999999999999	0	29.56891619511894	-11.66262236294287	-9.522152239693854	34.48367633512154	0.6018536902399225	0	0	0	29.56891619511894	-11.66262236294287	-9.522152239693854	34.48367633512154	0.6018536902399225	0	0	0	-5.941121306305216	-2.841026505444181	2.861493956660378	18.83775412940865	-0.5031148444270034	1.482892025637114	45.68590013526229	134.4715745377194	0	0	16.95536435364361	-7.930332489536232	18.07408898215102	42.41444085763393	122.5691197080976	0	0
